<?xml version="1.0" encoding="UTF-8"?>
<svg id="Layer_2" data-name="Layer 2" xmlns="http://www.w3.org/2000/svg" viewBox="0 0 178 178">
  <defs>
    <style>
      .cls-1 {
        opacity: .9;
      }

      .cls-2, .cls-3 {
        stroke-width: 0px;
      }

      .cls-3 {
        fill: #d5ab87;
      }
    </style>
  </defs>
  <g id="Layer_2-2" data-name="Layer 2">
    <g id="Layer_5" data-name="Layer 5">
      <g>
        <circle class="cls-3" cx="89" cy="89" r="89"/>
        <g class="cls-1">
          <path class="cls-2" d="M48.71,32.66c-2.3.75-4.16,1.65-6.34,3.1-4.62,3.07-6.1,4.62-7.28,7.6-2.76,6.92-3.51,8.37-5.27,10.52-2.47,3.02-3.29,5.66-2.32,7.67.94,1.91,2.78,2.42,5.25,1.45.65-.27,2.52-1.21,4.11-2.1s4.35-2.32,6.12-3.17c3.8-1.81,5.69-3.02,8.61-5.52,1.16-1.02,2.23-1.84,2.32-1.84.46,0,.77,1.81.63,3.44-.34,3.8-2.25,7.18-11.15,19.79-6.87,9.75-9.36,13.69-11.61,18.46-3.07,6.51-4.26,11.56-4.23,18.17,0,3.99.41,7.26,1.33,10.74,2.88,10.84,12.58,18.51,27.24,21.55,11.9,2.47,21.12,3.41,32.95,3.41,17.44,0,28.38-2.03,39-7.26,6-2.93,10.04-5.76,14.37-9.99,3.87-3.8,6.65-7.64,7.89-10.89.75-2.01.77-3.14.05-4.52-1.09-2.18-2.76-2.39-8.15-1.09-4.48,1.11-7.81,1.33-10.47.75-1.02-.24-1.86-.46-1.86-.53,0-.07.17-.36.36-.68,1.06-1.6.53-3.85-1.16-4.96l-.9-.58,1.55-.65c6.19-2.61,9.92-7.79,7.81-10.91-.29-.46-.94-1.04-1.4-1.28l-.87-.48,2.01-1.91c4.09-3.87,6.56-9.07,5.59-11.78-.34-.97-1.65-1.94-2.59-1.94-.36,0-1.38.31-2.23.73-3.27,1.48-12.53,4.31-13.28,4.06-.12-.05.58-.75,1.55-1.57,3.24-2.69,6.31-7.16,7.69-11.13,1.11-3.27,0-5.15-3.05-5.15-.82,0-1.62.27-3.31,1.16-2.25,1.19-3.1,1.69-9.31,5.71-8.68,5.64-11.95,6.65-27.89,8.73-3.53.48-7.06.97-7.86,1.11-2.44.41-6.89,1.6-9.8,2.59-1.52.53-3.7,1.19-4.84,1.5-3.94,1.06-8.03,3.07-11.32,5.54-2.23,1.69-5.56,5.1-7.06,7.21-.58.85-1.09,1.48-1.14,1.43-.19-.17,1.19-4.35,2.23-6.8,1.45-3.36,2.3-5.06,6.68-13.23,6.94-12.97,8.9-17.2,10.09-21.94.56-2.27.63-3.02.63-6.56,0-3.36-.1-4.31-.53-5.9-1.72-6.14-5.95-10.89-11.1-12.39-1.6-.46-5.78-.27-7.69.34ZM52.71,36.2c3-.15,4.72.56,6.99,2.83,4.91,4.89,5.71,13.14,2.1,22.01-1.09,2.73-3.46,7.45-7.86,15.65-9.12,17.03-10.31,20.47-10.28,29.92,0,5.59.31,7.45,1.69,10.23,1.02,2.08,3.63,5.01,4.67,5.25,1.02.22,1.94-.24,2.32-1.19.46-1.09.31-1.4-1.35-3.22-2.61-2.83-3.27-5.01-2.42-8.25,1.28-4.98,3.82-9.27,7.74-13.11,4.84-4.72,10.06-7.23,17.49-8.39,5.15-.8,13.96-.51,23.9.8,5.13.65,9.6.7,13.55.1,7.67-1.14,18.8-3.63,24.29-5.42,1.45-.48,2.69-.82,2.76-.77.31.34-1.55,2.95-3.46,4.86-5.1,5.06-12.07,7.52-21.82,7.69-3.24.05-3.46.1-4.04.63-.82.77-.85,1.94-.05,2.85l.58.68,3.24-.02c1.79-.02,4.38-.17,5.78-.31,1.38-.15,4.09-.44,6.02-.65,1.94-.19,4.38-.53,5.44-.73,3.7-.65,3.75-.65,3.75-.36,0,.63-2.52,2.9-4.06,3.73-2.37,1.26-4.19,1.79-8.32,2.49-4.57.75-11.68,1.04-16.04.6-2.71-.27-2.93-.27-3.51.17-.82.63-1.11,1.52-.75,2.39.39.97.82,1.16,3.56,1.74,4.69.97,8.08,1.28,14.97,1.45l6.77.15-.85.56c-3,1.94-8.98,2.95-14.51,2.47-4.6-.41-9.22-1.69-13.11-3.65-2.1-1.06-3-1.16-3.77-.46-1.16,1.09-.92,2.52.6,3.46,2.59,1.57,11.1,4.57,18.1,6.31l3.14.8-1.19.39c-4.38,1.5-10.96.9-16.69-1.55-2.47-1.04-6.22-3.36-8.81-5.44-2.64-2.08-3.27-2.23-4.45-1.06-1.04,1.06-.82,1.94.82,3.46,1.62,1.45,8.3,5.93,15.19,10.14,2.64,1.62,2.47,1.72-1.45.92-7.04-1.43-12.8-4.69-17.83-10.11-1.43-1.52-2.73-2.71-3.1-2.81-1.5-.39-2.88,1.33-2.27,2.78.44,1.09,8.78,9.41,11.83,11.83,1.4,1.09,2.59,2.03,2.64,2.08.53.46-5.85-1.26-8.15-2.2-4.06-1.65-7.74-4.43-9.46-7.09-1.69-2.64-2.15-2.95-3.56-2.35-.92.39-1.43,1.33-1.19,2.27.27,1.04,2.23,3.82,3.77,5.37,4.81,4.72,13.6,8.2,20.66,8.2,3.48-.02,5.13-1.04,4.91-3.14-.05-.53-.07-.97-.07-.97,0,0,.87.17,1.94.36,2.32.41,6.51.46,8.01.1,1.26-.31,2.39-1.35,2.59-2.32.17-.85-.44-2.37-1.19-2.95-.56-.44-.53-.44,1.79-.58,2.9-.19,4.69-.65,7.23-1.89,2.23-1.09,3.68-2.49,3.73-3.56s-.02-1.6-.31-2.15c-.15-.31-.22-.58-.17-.63.29-.19,4.04-1.21,4.45-1.21.27,0,1.23.31,2.18.68,4.38,1.67,8.78,1.74,14.88.27,1.94-.48,3.63-.87,3.8-.87.51,0-.39,2.08-1.86,4.31-6.73,10.16-20.3,18.12-35.13,20.59-5.42.9-10.06,1.26-18.1,1.4-12.63.22-21.94-.68-34.76-3.34-11.76-2.44-19.96-8.18-23.03-16.16-1.4-3.63-1.81-6.34-1.84-11.88,0-5.56.22-7.09,1.77-11.73,1.02-3.14,3.6-8.35,6.05-12.17.94-1.52,4.14-6.17,7.09-10.38,10.4-14.83,11.95-17.81,11.93-23.18,0-2.18-.1-2.85-.51-3.75-1.19-2.59-3.58-3.56-6-2.44-.53.24-1.98,1.31-3.22,2.37-1.23,1.04-2.56,2.1-2.95,2.32l-.7.44.34-1.02c.46-1.26,1.21-2.49,2.23-3.63,1.11-1.23,1.26-2.1.46-3.05l-.63-.75-3.63-.1c-1.98-.05-3.7-.17-3.77-.27-.56-.56,5.54-4.86,8.54-6.02,1.43-.56,2.37-.75,3.94-.82ZM38.31,46.86c.15-.02.85.1,1.57.24.73.17,1.62.34,1.98.34l.65.02-.63,1.38c-.31.77-.73,2.27-.87,3.36l-.27,1.98-2.2,1.11c-1.19.6-3.29,1.72-4.67,2.47-1.35.75-2.47,1.23-2.47,1.11s.51-.92,1.14-1.74c2.47-3.24,3.05-4.19,4.26-7.16.7-1.69,1.38-3.1,1.5-3.12ZM129.56,69c.27,0-.29,1.21-1.33,2.9-1.45,2.42-5.1,6-8.03,7.93-1.26.82-3.82,2.27-5.69,3.19-4.4,2.15-5.81,2.39-11.88,1.96-3.75-.27-11.49-1.14-10.81-1.21.15,0,2.15-.29,4.48-.63,12-1.74,16.11-3.29,25.93-9.73,2.13-1.4,4.62-2.95,5.54-3.48.92-.51,1.72-.94,1.79-.94Z"/>
        </g>
      </g>
    </g>
  </g>
</svg>